# xmcd
#
# Track frame offsets: 
#        150
#        23348
#        42151
#        67215
#        83663
#        104095
#        127184
#        158905
#        179445
#        200713
#
# Disc length: 3096 seconds
#
# Revision: 0
# Processed by: cddbd v1.4PL0 Copyright (c) Steve Scherf et al.
# Submitted via: ExactAudioCopy v0.90b4
#
DISCID=8c0c160a
DTITLE=Alvon - Alvon
DYEAR=1998
DGENRE=Blues
TTITLE0=Hoochie Coochie Man
TTITLE1=The Thrill Is Gone
TTITLE2=Passion
TTITLE3=I Love To Play The Blues
TTITLE4=Sasification
TTITLE5=You
TTITLE6=Let's Straighten It Out
TTITLE7=If I Could Play
TTITLE8=Someone
TTITLE9=Daddys Home
EXTD=
EXTT0=
EXTT1=
EXTT2=
EXTT3=
EXTT4=
EXTT5=
EXTT6=
EXTT7=
EXTT8=
EXTT9=
PLAYORDER=
